<?xml version="1.0" encoding="UTF-8" standalone="no"?>
<!-- Created with Inkscape (http://www.inkscape.org/) -->
<svg width="100" height="100" viewBox="0 0 26.458333 26.458333" version="1.1" id="svg1" xmlns="http://www.w3.org/2000/svg" xmlns:svg="http://www.w3.org/2000/svg">
	<defs id="defs1" />
	<circle id="dpad-center" transform="matrix(4.7672056,0,0,4.7672056,-14.394218,-22.671667)" style="fill:none;fill-opacity:1;stroke:#000000;stroke-width:0.264583;stroke-dasharray:none" cx="5.7944603" cy="7.5307918" r="2.6427443" />
	<g id="dpad" style="stroke:#000000;stroke-width:0.211667;stroke-dasharray:none" transform="matrix(4.7672056,0,0,4.7672056,-14.394218,-22.671667)">
		<path id="dpad-0-degrees" d="m 5.2256608,5.6266694 h 1.1655409 v 1.095261 L 5.8104983,7.2242253 5.2256608,6.7219304 Z" />
		<path id="dpad-45-degrees" d="M 6.7380394,6.6227988 H 7.4842661 L 6.7380394,5.880095 v 0.7427038 h 0.7462267" />
		<path id="dpad-90-degrees" d="m 7.7376102,6.9673896 v 1.165541 H 6.6423492 L 6.1400543,7.5522272 6.6423492,6.9673896 Z" />
		<path id="dpad-135-degrees" d="M 6.7406558,8.4761534 V 9.2223801 L 7.4833596,8.4761534 H 6.7406558 v 0.7462267" />
		<path id="dpad-180-degrees" d="M 6.3912017,9.4730093 H 5.2256608 V 8.3777399 L 5.8063642,7.875445 6.3912017,8.3777399 Z" />
		<path id="dpad-225-degrees" d="M 4.8813212,8.4787698 H 4.1350945 L 4.8813212,9.2214736 V 8.4787698 H 4.1350945" />
		<path id="dpad-270-degrees" d="M 3.89127,8.1329307 V 6.9673896 h 1.0952696 l 0.502295,0.5807035 -0.502295,0.5848376 z" />
		<path id="dpad-315-degrees" d="M 4.9000084,6.6280316 V 5.8818049 L 4.1573046,6.6280316 H 4.9000084 V 5.8818049" />
	</g>
</svg>
